# xmcd CD database file
#
# Track frame offsets:
#	151
#	11097
#	30129
#	46692
#	65893
#	89492
#	103165
#	125770
#	147401
#	165692
#	182940
#	212216
#
# Disc length: 3027 seconds
#
# Revision: 0
# Processed by: cddbd v1.5.1PL2 Copyright (c) Steve Scherf et al.
# Submitted via: CDex 1.51
#
DISCID=af0bd10c
DTITLE=Jim Haptonstahl - Inside My Mind's Eye
DYEAR=2004
DGENRE=New Age
TTITLE0=escape from camp cusino
TTITLE1=the moon is blue
TTITLE2=prairie trance
TTITLE3=arctic repentence
TTITLE4=gone too soon
TTITLE5=lachrymale
TTITLE6=inside my mind's eye
TTITLE7=never to be lost again
TTITLE8=lamentia
TTITLE9=orphans of shadows
TTITLE10=klaa2 #9
TTITLE11=skip rocking
EXTD=YEAR: 2004
EXTT0=
EXTT1=
EXTT2=
EXTT3=
EXTT4=
EXTT5=
EXTT6=
EXTT7=
EXTT8=
EXTT9=
EXTT10=
EXTT11=
PLAYORDER=
